{
	"asset":{
		"generator":"Khronos glTF Blender I/O v3.6.28",
		"version":"2.0"
	},
	"scene":0,
	"scenes":[
		{
			"name":"Scene",
			"nodes":[
				0,
				1
			]
		}
	],
	"nodes":[
		{
			"mesh":0,
			"name":"Floor"
		},
		{
			"mesh":1,
			"name":"Plane",
			"translation":[
				-0.5,
				0.020000003278255463,
				1.6999999284744263
			]
		}
	],
	"materials":[
		{
			"doubleSided":true,
			"name":"Ground 1",
			"pbrMetallicRoughness":{
				"baseColorFactor":[
					0.2140343189239502,
					0.2140343189239502,
					0.2140343189239502,
					1
				],
				"metallicFactor":0.20000000298023224
			}
		},
		{
			"doubleSided":true,
			"name":"Vent",
			"pbrMetallicRoughness":{
				"baseColorFactor":[
					0,
					0,
					0,
					1
				],
				"metallicFactor":0.75,
				"roughnessFactor":0.75
			}
		}
	],
	"meshes":[
		{
			"name":"Plane",
			"primitives":[
				{
					"attributes":{
						"POSITION":0,
						"NORMAL":1,
						"TEXCOORD_0":2
					},
					"indices":3,
					"material":0
				}
			]
		},
		{
			"name":"Plane.001",
			"primitives":[
				{
					"attributes":{
						"POSITION":4,
						"NORMAL":5,
						"TEXCOORD_0":6
					},
					"indices":7,
					"material":1
				}
			]
		}
	],
	"accessors":[
		{
			"bufferView":0,
			"componentType":5126,
			"count":16,
			"max":[
				3,
				0,
				3
			],
			"min":[
				-3,
				0,
				-3
			],
			"type":"VEC3"
		},
		{
			"bufferView":1,
			"componentType":5126,
			"count":16,
			"type":"VEC3"
		},
		{
			"bufferView":2,
			"componentType":5126,
			"count":16,
			"type":"VEC2"
		},
		{
			"bufferView":3,
			"componentType":5123,
			"count":48,
			"type":"SCALAR"
		},
		{
			"bufferView":4,
			"componentType":5126,
			"count":400,
			"max":[
				1.899999976158142,
				0,
				1.000000238418579
			],
			"min":[
				-0.8999999761581421,
				-0.2000001221895218,
				0.10000014305114746
			],
			"type":"VEC3"
		},
		{
			"bufferView":5,
			"componentType":5126,
			"count":400,
			"type":"VEC3"
		},
		{
			"bufferView":6,
			"componentType":5126,
			"count":400,
			"type":"VEC2"
		},
		{
			"bufferView":7,
			"componentType":5123,
			"count":1056,
			"type":"SCALAR"
		}
	],
	"bufferViews":[
		{
			"buffer":0,
			"byteLength":192,
			"byteOffset":0,
			"target":34962
		},
		{
			"buffer":0,
			"byteLength":192,
			"byteOffset":192,
			"target":34962
		},
		{
			"buffer":0,
			"byteLength":128,
			"byteOffset":384,
			"target":34962
		},
		{
			"buffer":0,
			"byteLength":96,
			"byteOffset":512,
			"target":34963
		},
		{
			"buffer":0,
			"byteLength":4800,
			"byteOffset":608,
			"target":34962
		},
		{
			"buffer":0,
			"byteLength":4800,
			"byteOffset":5408,
			"target":34962
		},
		{
			"buffer":0,
			"byteLength":3200,
			"byteOffset":10208,
			"target":34962
		},
		{
			"buffer":0,
			"byteLength":2112,
			"byteOffset":13408,
			"target":34963
		}
	],
	"buffers":[
		{
			"byteLength":15520,
			"uri":"data:application/octet-stream;base64,"
		}
	]
}
